<svg xmlns="http://www.w3.org/2000/svg" viewBox="0 0 240 200"><defs><linearGradient id="p" x1="0" y1="0" x2="0" y2="1"><stop offset="0" stop-color="#5fd593"/><stop offset="1" stop-color="#1f8f57"/></linearGradient><radialGradient id="h" cx=".5" cy=".5" r=".5"><stop offset="0" stop-color="#bff0d0"/><stop offset="1" stop-color="#bff0d0" stop-opacity="0"/></radialGradient></defs>
<circle cx="120" cy="104" r="86" fill="url(#h)"/>
<ellipse cx="120" cy="168" rx="58" ry="9" fill="#2fa862" opacity=".16"/>
<path d="M92 128h56l-7 34a8 8 0 0 1-8 6h-26a8 8 0 0 1-8-6z" fill="url(#p)"/><rect x="88" y="120" width="64" height="12" rx="6" fill="#34b06b"/>
<path d="M120 120V82" stroke="#1f8f57" stroke-width="5" stroke-linecap="round"/>
<path d="M120 94c-2-20 10-34 34-36-1 22-12 34-34 36z" fill="#9be88f"/><path d="M120 104c-1-16-12-26-30-27 0 17 9 26 30 27z" fill="#6fd68c"/>
<g fill="#f5c04a"><path d="M52 62l3 7 7 3-7 3-3 7-3-7-7-3 7-3z"/><path d="M190 48l2 5 5 2-5 2-2 5-2-5-5-2 5-2z"/></g><circle cx="178" cy="120" r="4" fill="#34b06b" opacity=".5"/><circle cx="62" cy="130" r="3" fill="#34b06b" opacity=".4"/></svg>