<svg xmlns="http://www.w3.org/2000/svg" viewBox="0 0 1200 640" width="1200" height="640" font-family="Inter, 'Segoe UI', Arial, sans-serif"><defs><linearGradient id="hd" x1="0" y1="0" x2="1" y2="1"><stop offset="0" stop-color="#43c783"/><stop offset="1" stop-color="#1f9a5c"/></linearGradient><marker id="ar" viewBox="0 0 10 10" refX="9" refY="5" markerWidth="8" markerHeight="8" orient="auto-start-reverse"><path d="M0,0 L10,5 L0,10 z" fill="#1d7a48"/></marker><marker id="ar2" viewBox="0 0 10 10" refX="9" refY="5" markerWidth="7" markerHeight="7" orient="auto-start-reverse"><path d="M0,0 L10,5 L0,10 z" fill="#8da498"/></marker><filter id="sh" x="-10%" y="-10%" width="120%" height="130%"><feDropShadow dx="0" dy="3" stdDeviation="4" flood-color="#124a2d" flood-opacity=".14"/></filter></defs><rect width="1200" height="640" fill="#ffffff"/><text x="600.0" y="40" text-anchor="middle" font-size="24" font-weight="800" fill="#124a2d">Figure 30 — Achievement system: points and levels</text><rect x="60" y="340" width="160" height="60" rx="12" fill="#c3ecd2"/><text x="140" y="368.2" text-anchor="middle" font-size="12" font-weight="700" fill="#124a2d"><tspan x="140" dy="0">Level 1</tspan></text><text x="140" y="391.6" text-anchor="middle" font-size="16" font-weight="800" fill="#124a2d"><tspan x="140" dy="0">Newcomer</tspan></text><text x="140" y="424.2" text-anchor="middle" font-size="12" font-weight="600" fill="#5f7568"><tspan x="140" dy="0">0+ pts</tspan></text><rect x="250" y="302" width="160" height="98" rx="12" fill="#94dcb1"/><text x="330" y="330.2" text-anchor="middle" font-size="12" font-weight="700" fill="#124a2d"><tspan x="330" dy="0">Level 2</tspan></text><text x="330" y="353.6" text-anchor="middle" font-size="16" font-weight="800" fill="#124a2d"><tspan x="330" dy="0">Explorer</tspan></text><text x="330" y="424.2" text-anchor="middle" font-size="12" font-weight="600" fill="#5f7568"><tspan x="330" dy="0">50+ pts</tspan></text><rect x="440" y="264" width="160" height="136" rx="12" fill="#6fd09a"/><text x="520" y="292.2" text-anchor="middle" font-size="12" font-weight="700" fill="#fff"><tspan x="520" dy="0">Level 3</tspan></text><text x="520" y="315.6" text-anchor="middle" font-size="16" font-weight="800" fill="#fff"><tspan x="520" dy="0">Contributor</tspan></text><text x="520" y="424.2" text-anchor="middle" font-size="12" font-weight="600" fill="#5f7568"><tspan x="520" dy="0">150+ pts</tspan></text><rect x="630" y="226" width="160" height="174" rx="12" fill="#34b06b"/><text x="710" y="254.2" text-anchor="middle" font-size="12" font-weight="700" fill="#fff"><tspan x="710" dy="0">Level 4</tspan></text><text x="710" y="277.6" text-anchor="middle" font-size="16" font-weight="800" fill="#fff"><tspan x="710" dy="0">Innovator</tspan></text><text x="710" y="424.2" text-anchor="middle" font-size="12" font-weight="600" fill="#5f7568"><tspan x="710" dy="0">300+ pts</tspan></text><rect x="820" y="188" width="160" height="212" rx="12" fill="#249658"/><text x="900" y="216.2" text-anchor="middle" font-size="12" font-weight="700" fill="#fff"><tspan x="900" dy="0">Level 5</tspan></text><text x="900" y="239.6" text-anchor="middle" font-size="16" font-weight="800" fill="#fff"><tspan x="900" dy="0">Pioneer</tspan></text><text x="900" y="424.2" text-anchor="middle" font-size="12" font-weight="600" fill="#5f7568"><tspan x="900" dy="0">600+ pts</tspan></text><rect x="1010" y="150" width="160" height="250" rx="12" fill="#1a613c"/><text x="1090" y="178.2" text-anchor="middle" font-size="12" font-weight="700" fill="#fff"><tspan x="1090" dy="0">Level 6</tspan></text><text x="1090" y="201.6" text-anchor="middle" font-size="16" font-weight="800" fill="#fff"><tspan x="1090" dy="0">Legend</tspan></text><text x="1090" y="424.2" text-anchor="middle" font-size="12" font-weight="600" fill="#5f7568"><tspan x="1090" dy="0">1000+ pts</tspan></text><path d="M60,372 L1100,70" stroke="#8da498" stroke-width="2" stroke-dasharray="6 6" fill="none" marker-end="url(#ar2)"/><rect x="60" y="480" width="200" height="48" rx="12" fill="#fff" stroke="#94dcb1" stroke-width="1.6" filter="url(#sh)"/><text x="74" y="508.375" text-anchor="start" font-size="12.5" font-weight="600" fill="#11291d"><tspan x="74" dy="0">Complete profile</tspan></text><text x="246" y="508.9" text-anchor="end" font-size="14" font-weight="800" fill="#249658"><tspan x="246" dy="0">+20</tspan></text><rect x="280" y="480" width="200" height="48" rx="12" fill="#fff" stroke="#94dcb1" stroke-width="1.6" filter="url(#sh)"/><text x="294" y="508.375" text-anchor="start" font-size="12.5" font-weight="600" fill="#11291d"><tspan x="294" dy="0">Publish a post</tspan></text><text x="466" y="508.9" text-anchor="end" font-size="14" font-weight="800" fill="#249658"><tspan x="466" dy="0">+10</tspan></text><rect x="500" y="480" width="200" height="48" rx="12" fill="#fff" stroke="#94dcb1" stroke-width="1.6" filter="url(#sh)"/><text x="514" y="508.375" text-anchor="start" font-size="12.5" font-weight="600" fill="#11291d"><tspan x="514" dy="0">Start a project</tspan></text><text x="686" y="508.9" text-anchor="end" font-size="14" font-weight="800" fill="#249658"><tspan x="686" dy="0">+15</tspan></text><rect x="720" y="480" width="200" height="48" rx="12" fill="#fff" stroke="#94dcb1" stroke-width="1.6" filter="url(#sh)"/><text x="734" y="508.375" text-anchor="start" font-size="12.5" font-weight="600" fill="#11291d"><tspan x="734" dy="0">Join a project</tspan></text><text x="906" y="508.9" text-anchor="end" font-size="14" font-weight="800" fill="#249658"><tspan x="906" dy="0">+10</tspan></text><rect x="940" y="480" width="200" height="48" rx="12" fill="#fff" stroke="#94dcb1" stroke-width="1.6" filter="url(#sh)"/><text x="954" y="508.375" text-anchor="start" font-size="12.5" font-weight="600" fill="#11291d"><tspan x="954" dy="0">Complete a project</tspan></text><text x="1126" y="508.9" text-anchor="end" font-size="14" font-weight="800" fill="#249658"><tspan x="1126" dy="0">+30</tspan></text><rect x="60" y="542" width="200" height="48" rx="12" fill="#fff" stroke="#94dcb1" stroke-width="1.6" filter="url(#sh)"/><text x="74" y="570.375" text-anchor="start" font-size="12.5" font-weight="600" fill="#11291d"><tspan x="74" dy="0">Comment</tspan></text><text x="246" y="570.9" text-anchor="end" font-size="14" font-weight="800" fill="#249658"><tspan x="246" dy="0">+3</tspan></text><rect x="280" y="542" width="200" height="48" rx="12" fill="#fff" stroke="#94dcb1" stroke-width="1.6" filter="url(#sh)"/><text x="294" y="570.375" text-anchor="start" font-size="12.5" font-weight="600" fill="#11291d"><tspan x="294" dy="0">Reaction received</tspan></text><text x="466" y="570.9" text-anchor="end" font-size="14" font-weight="800" fill="#249658"><tspan x="466" dy="0">+1</tspan></text><rect x="500" y="542" width="200" height="48" rx="12" fill="#fff" stroke="#94dcb1" stroke-width="1.6" filter="url(#sh)"/><text x="514" y="570.375" text-anchor="start" font-size="12.5" font-weight="600" fill="#11291d"><tspan x="514" dy="0">List a service</tspan></text><text x="686" y="570.9" text-anchor="end" font-size="14" font-weight="800" fill="#249658"><tspan x="686" dy="0">+10</tspan></text><rect x="720" y="542" width="200" height="48" rx="12" fill="#fff" stroke="#94dcb1" stroke-width="1.6" filter="url(#sh)"/><text x="734" y="570.375" text-anchor="start" font-size="12.5" font-weight="600" fill="#11291d"><tspan x="734" dy="0">Finish a course</tspan></text><text x="906" y="570.9" text-anchor="end" font-size="14" font-weight="800" fill="#249658"><tspan x="906" dy="0">+25</tspan></text><rect x="940" y="542" width="200" height="48" rx="12" fill="#fff" stroke="#94dcb1" stroke-width="1.6" filter="url(#sh)"/><text x="954" y="570.375" text-anchor="start" font-size="12.5" font-weight="600" fill="#11291d"><tspan x="954" dy="0">Mentoring session</tspan></text><text x="1126" y="570.9" text-anchor="end" font-size="14" font-weight="800" fill="#249658"><tspan x="1126" dy="0">+5/+20</tspan></text></svg>