<svg xmlns="http://www.w3.org/2000/svg" viewBox="0 0 1120 754" width="1120" height="754" font-family="Inter, 'Segoe UI', Arial, sans-serif"><defs><linearGradient id="hd" x1="0" y1="0" x2="1" y2="1"><stop offset="0" stop-color="#43c783"/><stop offset="1" stop-color="#1f9a5c"/></linearGradient><marker id="ar" viewBox="0 0 10 10" refX="9" refY="5" markerWidth="8" markerHeight="8" orient="auto-start-reverse"><path d="M0,0 L10,5 L0,10 z" fill="#1d7a48"/></marker><marker id="ar2" viewBox="0 0 10 10" refX="9" refY="5" markerWidth="7" markerHeight="7" orient="auto-start-reverse"><path d="M0,0 L10,5 L0,10 z" fill="#8da498"/></marker><filter id="sh" x="-10%" y="-10%" width="120%" height="130%"><feDropShadow dx="0" dy="3" stdDeviation="4" flood-color="#124a2d" flood-opacity=".14"/></filter></defs><rect width="1120" height="754" fill="#ffffff"/><text x="560.0" y="40" text-anchor="middle" font-size="24" font-weight="800" fill="#124a2d">Figure 27 — Administrator use cases (updated)</text><rect x="330" y="64" width="760" height="660" rx="14" fill="#f2fbf5" stroke="#34b06b" stroke-width="2"/><text x="710.0" y="94.9" text-anchor="middle" font-size="14" font-weight="800" fill="#1a613c"><tspan x="710.0" dy="0">MANBAR System</tspan></text><line x1="190" y1="384.0" x2="423" y2="147.0" stroke="#8da498" stroke-width="1.5"/><line x1="190" y1="384.0" x2="423" y2="201.0" stroke="#8da498" stroke-width="1.5"/><line x1="190" y1="384.0" x2="423" y2="255.0" stroke="#8da498" stroke-width="1.5"/><line x1="190" y1="384.0" x2="423" y2="309.0" stroke="#8da498" stroke-width="1.5"/><line x1="190" y1="384.0" x2="423" y2="363.0" stroke="#8da498" stroke-width="1.5"/><line x1="190" y1="384.0" x2="423" y2="417.0" stroke="#8da498" stroke-width="1.5"/><line x1="190" y1="384.0" x2="423" y2="471.0" stroke="#8da498" stroke-width="1.5"/><line x1="190" y1="384.0" x2="423" y2="525.0" stroke="#8da498" stroke-width="1.5"/><line x1="190" y1="384.0" x2="423" y2="579.0" stroke="#8da498" stroke-width="1.5"/><line x1="190" y1="384.0" x2="423" y2="633.0" stroke="#8da498" stroke-width="1.5"/><line x1="190" y1="384.0" x2="423" y2="687.0" stroke="#8da498" stroke-width="1.5"/><line x1="826" y1="417.0" x2="667" y2="417.0" stroke="#8da498" stroke-width="1.6" stroke-dasharray="6 5" marker-end="url(#ar2)"/><text x="739.5" y="412.675" text-anchor="middle" font-size="10.5" font-weight="600" fill="#5f7568"><tspan x="739.5" dy="0">«extend»</tspan></text><line x1="826" y1="255.0" x2="667" y2="255.0" stroke="#8da498" stroke-width="1.6" stroke-dasharray="6 5" marker-end="url(#ar2)"/><text x="739.5" y="250.675" text-anchor="middle" font-size="10.5" font-weight="600" fill="#5f7568"><tspan x="739.5" dy="0">«extend»</tspan></text><line x1="826" y1="463.0" x2="667" y2="417.0" stroke="#8da498" stroke-width="1.6" stroke-dasharray="6 5" marker-end="url(#ar2)"/><text x="739.5" y="435.675" text-anchor="middle" font-size="10.5" font-weight="600" fill="#5f7568"><tspan x="739.5" dy="0">«extend»</tspan></text><circle cx="150" cy="344.0" r="20" fill="#fff" stroke="#1a613c" stroke-width="2.4"/><line x1="150" y1="364.0" x2="150" y2="419.0" stroke="#1a613c" stroke-width="2.4"/><line x1="105" y1="382.0" x2="195" y2="382.0" stroke="#1a613c" stroke-width="2.4"/><line x1="150" y1="419.0" x2="112" y2="474.0" stroke="#1a613c" stroke-width="2.4"/><line x1="150" y1="419.0" x2="188" y2="474.0" stroke="#1a613c" stroke-width="2.4"/><text x="150" y="511.25" text-anchor="middle" font-size="15" font-weight="800" fill="#124a2d"><tspan x="150" dy="0">Administrator</tspan></text><ellipse cx="545" cy="147.0" rx="122" ry="23" fill="#fff" stroke="#34b06b" stroke-width="1.8"/><text x="545" y="151.025" text-anchor="middle" font-size="11.5" font-weight="600" fill="#11291d"><tspan x="545" dy="0">Secure login</tspan></text><ellipse cx="545" cy="201.0" rx="122" ry="23" fill="#fff" stroke="#34b06b" stroke-width="1.8"/><text x="545" y="205.025" text-anchor="middle" font-size="11.5" font-weight="600" fill="#11291d"><tspan x="545" dy="0">View dashboard &amp; analytics</tspan></text><ellipse cx="545" cy="255.0" rx="122" ry="23" fill="#fff" stroke="#34b06b" stroke-width="1.8"/><text x="545" y="259.025" text-anchor="middle" font-size="11.5" font-weight="600" fill="#11291d"><tspan x="545" dy="0">Manage users (role · suspend · delete)</tspan></text><ellipse cx="545" cy="309.0" rx="122" ry="23" fill="#fff" stroke="#34b06b" stroke-width="1.8"/><text x="545" y="313.025" text-anchor="middle" font-size="11.5" font-weight="600" fill="#11291d"><tspan x="545" dy="0">Verify university accounts</tspan></text><ellipse cx="545" cy="363.0" rx="122" ry="23" fill="#fff" stroke="#34b06b" stroke-width="1.8"/><text x="545" y="367.025" text-anchor="middle" font-size="11.5" font-weight="600" fill="#11291d"><tspan x="545" dy="0">Manage student roster (CSV import)</tspan></text><ellipse cx="545" cy="417.0" rx="122" ry="23" fill="#fff" stroke="#34b06b" stroke-width="1.8"/><text x="545" y="421.025" text-anchor="middle" font-size="11.5" font-weight="600" fill="#11291d"><tspan x="545" dy="0">Moderate posts and comments</tspan></text><ellipse cx="545" cy="471.0" rx="122" ry="23" fill="#fff" stroke="#34b06b" stroke-width="1.8"/><text x="545" y="475.025" text-anchor="middle" font-size="11.5" font-weight="600" fill="#11291d"><tspan x="545" dy="0">Moderate projects, services, courses</tspan></text><ellipse cx="545" cy="525.0" rx="122" ry="23" fill="#fff" stroke="#34b06b" stroke-width="1.8"/><text x="545" y="529.025" text-anchor="middle" font-size="11.5" font-weight="600" fill="#11291d"><tspan x="545" dy="0">Review reports</tspan></text><ellipse cx="545" cy="579.0" rx="122" ry="23" fill="#fff" stroke="#34b06b" stroke-width="1.8"/><text x="545" y="583.025" text-anchor="middle" font-size="11.5" font-weight="600" fill="#11291d"><tspan x="545" dy="0">Manage universities (enable domains)</tspan></text><ellipse cx="545" cy="633.0" rx="122" ry="23" fill="#fff" stroke="#34b06b" stroke-width="1.8"/><text x="545" y="637.025" text-anchor="middle" font-size="11.5" font-weight="600" fill="#11291d"><tspan x="545" dy="0">Platform settings &amp; notice</tspan></text><ellipse cx="545" cy="687.0" rx="122" ry="23" fill="#fff" stroke="#34b06b" stroke-width="1.8"/><text x="545" y="691.025" text-anchor="middle" font-size="11.5" font-weight="600" fill="#11291d"><tspan x="545" dy="0">Audit log</tspan></text><ellipse cx="930" cy="417.0" rx="104" ry="23" fill="#fff8e6" stroke="#f2b032" stroke-width="1.8"/><text x="930" y="421.025" text-anchor="middle" font-size="11.5" font-weight="600" fill="#11291d"><tspan x="930" dy="0">Hide / restore content</tspan></text><ellipse cx="930" cy="255.0" rx="104" ry="23" fill="#fff8e6" stroke="#f2b032" stroke-width="1.8"/><text x="930" y="259.025" text-anchor="middle" font-size="11.5" font-weight="600" fill="#11291d"><tspan x="930" dy="0">Export users (CSV)</tspan></text><ellipse cx="930" cy="463.0" rx="104" ry="23" fill="#fff8e6" stroke="#f2b032" stroke-width="1.8"/><text x="930" y="467.025" text-anchor="middle" font-size="11.5" font-weight="600" fill="#11291d"><tspan x="930" dy="0">Pin posts</tspan></text></svg>